<svg width="19" height="19" viewBox="0 0 19 19" fill="none" xmlns="http://www.w3.org/2000/svg">
<path d="M9.08789 18.1758C14.0713 18.1758 18.1846 14.0625 18.1846 9.08789C18.1846 4.11328 14.0625 0 9.0791 0C4.10449 0 0 4.11328 0 9.08789C0 14.0625 4.11328 18.1758 9.08789 18.1758ZM6.09082 12.9199C5.625 12.9199 5.25586 12.5508 5.25586 12.0762C5.25586 11.8652 5.34375 11.6543 5.51074 11.4961L7.90137 9.09668L5.51074 6.70605C5.34375 6.54785 5.25586 6.33691 5.25586 6.12598C5.25586 5.65137 5.625 5.29102 6.09082 5.29102C6.33691 5.29102 6.53027 5.37012 6.68848 5.52832L9.08789 7.91895L11.4961 5.51953C11.6719 5.35254 11.8564 5.27344 12.0938 5.27344C12.5596 5.27344 12.9287 5.64258 12.9287 6.1084C12.9287 6.32812 12.8408 6.52148 12.6738 6.69727L10.2832 9.09668L12.6738 11.4873C12.832 11.6543 12.9199 11.8564 12.9199 12.0762C12.9199 12.5508 12.5508 12.9199 12.0762 12.9199C11.8389 12.9199 11.6367 12.832 11.4697 12.6738L9.08789 10.292L6.70605 12.6738C6.54785 12.8408 6.33691 12.9199 6.09082 12.9199Z" fill="#AEAEB2"/>
</svg>
